<?xml version="1.0" encoding="UTF-8" standalone="no"?>
<svg width="142px" height="21px" viewBox="0 0 142 21" version="1.1" xmlns="http://www.w3.org/2000/svg" xmlns:xlink="http://www.w3.org/1999/xlink">
    <!-- Generator: Sketch 39.1 (31720) - http://www.bohemiancoding.com/sketch -->
    <title>stars-review</title>
    <desc>Created with Sketch.</desc>
    <defs></defs>
    <g id="Page-1" stroke="none" stroke-width="1" fill="none" fill-rule="evenodd">
        <g id="Full-Page-Download-App-variant-2" transform="translate(-112.000000, -279.000000)" fill="#FFDA44">
            <g id="Group-2" transform="translate(112.000000, 279.000000)">
                <g id="stars-review">
                    <polygon id="Shape" points="11 16.1333333 17.7833333 21.0833333 15.2166667 13.0166667 22 8.25 13.75 8.25 11 0 8.25 8.25 0 8.25 6.78333333 13.0166667 4.21666667 21.0833333"></polygon>
                    <polygon id="Shape" points="131 16.1333333 131 0 128.25 8.25 120 8.25 126.783333 13.0166667 124.216667 21.0833333"></polygon>
                    <polygon id="Shape" opacity="0.100000001" transform="translate(136.500000, 10.541667) scale(-1, 1) translate(-136.500000, -10.541667) " points="142 16.1333333 142 0 139.25 8.25 131 8.25 137.783333 13.0166667 135.216667 21.0833333"></polygon>
                    <polygon id="Shape" points="101 16.1333333 107.783333 21.0833333 105.216667 13.0166667 112 8.25 103.75 8.25 101 0 98.25 8.25 90 8.25 96.7833333 13.0166667 94.2166667 21.0833333"></polygon>
                    <polygon id="Shape" points="71 16.1333333 77.7833333 21.0833333 75.2166667 13.0166667 82 8.25 73.75 8.25 71 0 68.25 8.25 60 8.25 66.7833333 13.0166667 64.2166667 21.0833333"></polygon>
                    <polygon id="Shape" points="41 16.1333333 47.7833333 21.0833333 45.2166667 13.0166667 52 8.25 43.75 8.25 41 0 38.25 8.25 30 8.25 36.7833333 13.0166667 34.2166667 21.0833333"></polygon>
                </g>
            </g>
        </g>
    </g>
</svg>